<svg xmlns="http://www.w3.org/2000/svg" width="80" height="80" viewBox="0 0 80 80">
  <defs>
    <radialGradient id="helmet-glass" cx="35%" cy="30%" r="65%">
      <stop offset="0" stop-color="#e0f2fe" stop-opacity="0.9"/>
      <stop offset="0.5" stop-color="#7dd3fc" stop-opacity="0.5"/>
      <stop offset="1" stop-color="#0ea5e9" stop-opacity="0.25"/>
    </radialGradient>
    <radialGradient id="helmet-edge" cx="50%" cy="50%" r="50%">
      <stop offset="0" stop-color="#94a3b8"/>
      <stop offset="0.7" stop-color="#64748b"/>
      <stop offset="1" stop-color="#475569"/>
    </radialGradient>
    <radialGradient id="duck-body" cx="40%" cy="60%" r="55%">
      <stop offset="0" stop-color="#fef08a"/>
      <stop offset="0.5" stop-color="#facc15"/>
      <stop offset="0.85" stop-color="#eab308"/>
      <stop offset="1" stop-color="#ca8a04"/>
    </radialGradient>
    <radialGradient id="beak" cx="30%" cy="50%" r="70%">
      <stop offset="0" stop-color="#fdba74"/>
      <stop offset="0.6" stop-color="#f97316"/>
      <stop offset="1" stop-color="#ea580c"/>
    </radialGradient>
  </defs>

  <ellipse cx="40" cy="52" rx="22" ry="20" fill="url(#duck-body)" stroke="#ca8a04" stroke-width="0.8"/>
  <path d="M28 48 Q22 42 26 38 Q32 44 36 48 Z" fill="#eab308" opacity="0.9" stroke="#ca8a04" stroke-width="0.5"/>
  <circle cx="40" cy="28" r="14" fill="url(#duck-body)" stroke="#ca8a04" stroke-width="0.6"/>
  <circle cx="40" cy="28" r="18" fill="none" stroke="url(#helmet-edge)" stroke-width="3"/>
  <circle cx="40" cy="26" r="16" fill="url(#helmet-glass)" stroke="#64748b" stroke-width="1"/>
  <ellipse cx="34" cy="20" rx="4" ry="6" fill="white" opacity="0.4"/>
  <line x1="40" y1="10" x2="40" y2="2" stroke="#64748b" stroke-width="1.5"/>
  <circle cx="40" cy="2" r="2.5" fill="#94a3b8"/>
  <path d="M40 32 L52 30 Q56 30 54 34 L42 36 Z" fill="url(#beak)" stroke="#ea580c" stroke-width="0.5"/>
  <circle cx="46" cy="24" r="3" fill="#1e293b"/>
  <circle cx="47" cy="23" r="0.8" fill="white"/>
</svg>
