<svg xmlns="http://www.w3.org/2000/svg" width="80" height="80" viewBox="0 0 80 80">
  <defs>
    <radialGradient id="helmet-glass" cx="35%" cy="30%" r="65%">
      <stop offset="0" stop-color="#e0f2fe" stop-opacity="0.85"/>
      <stop offset="0.5" stop-color="#7dd3fc" stop-opacity="0.45"/>
      <stop offset="1" stop-color="#0ea5e9" stop-opacity="0.2"/>
    </radialGradient>
    <radialGradient id="helmet-ring" cx="50%" cy="50%" r="50%">
      <stop offset="0" stop-color="#94a3b8"/>
      <stop offset="0.7" stop-color="#64748b"/>
      <stop offset="1" stop-color="#475569"/>
    </radialGradient>
    <radialGradient id="duck-feathers" cx="40%" cy="55%" r="60%">
      <stop offset="0" stop-color="#6b7280"/>
      <stop offset="0.4" stop-color="#4b5563"/>
      <stop offset="0.75" stop-color="#374151"/>
      <stop offset="1" stop-color="#1f2937"/>
    </radialGradient>
    <radialGradient id="beak" cx="30%" cy="50%" r="70%">
      <stop offset="0" stop-color="#fbbf24"/>
      <stop offset="0.5" stop-color="#f59e0b"/>
      <stop offset="1" stop-color="#d97706"/>
    </radialGradient>
  </defs>

  <ellipse cx="40" cy="54" rx="20" ry="18" fill="url(#duck-feathers)" stroke="#374151" stroke-width="0.8"/>
  <path d="M26 50 Q20 44 24 40 Q30 46 34 50 Z" fill="#4b5563" stroke="#374151" stroke-width="0.5"/>
  <circle cx="40" cy="28" r="13" fill="url(#duck-feathers)" stroke="#374151" stroke-width="0.6"/>
  <path d="M44 20 Q48 18 50 20" fill="none" stroke="#1f2937" stroke-width="1.2" stroke-linecap="round"/>
  <circle cx="40" cy="28" r="17" fill="none" stroke="url(#helmet-ring)" stroke-width="2.5"/>
  <circle cx="40" cy="26" r="14.5" fill="url(#helmet-glass)" stroke="#64748b" stroke-width="0.8"/>
  <ellipse cx="34" cy="20" rx="3" ry="5" fill="white" opacity="0.35"/>
  <line x1="40" y1="11" x2="40" y2="3" stroke="#64748b" stroke-width="1.2"/>
  <circle cx="40" cy="3" r="2" fill="#94a3b8"/>
  <path d="M40 31 L50 29 Q54 29 52 33 L42 35 Z" fill="url(#beak)" stroke="#d97706" stroke-width="0.5"/>
  <circle cx="46" cy="24" r="3.2" fill="#dc2626"/>
  <circle cx="45" cy="23" r="0.6" fill="#fca5a5"/>
</svg>
